<svg xmlns="http://www.w3.org/2000/svg" viewBox="0 0 88.758 81.682">
  <defs>
    <style>
      .cls-1 {
        fill: #dce7ff;
        fill-rule: evenodd;
      }

      .cls-2 {
        fill: #5c87fe;
      }
    </style>
  </defs>
  <g id="Group_45" data-name="Group 45" transform="translate(-735 -753)">
    <g id="blob" transform="translate(735 753)">
      <g id="Landing-Page-v1.0" transform="translate(-878 -1090)">
        <g id="perks" transform="translate(-434 1088)">
          <g id="_1" data-name="1" transform="translate(1312 2)">
            <g id="icon-practicies">
              <path id="Path-4" class="cls-1" d="M16.094,12.042,13.98,14.237A49.933,49.933,0,0,0,.094,51.953h0A29.976,29.976,0,0,0,22.737,79.192l.684.171a77.533,77.533,0,0,0,43.46-1.7l2.387-.8A28.564,28.564,0,0,0,88.2,44.178l-1.785-8.926A44.019,44.019,0,0,0,57.442,2.216L57.106,2.1A39.343,39.343,0,0,0,16.094,12.042Z"/>
            </g>
          </g>
        </g>
      </g>
    </g>
    <path id="database" class="cls-2" d="M17.5,0C11.925,0,7.215,1.294,5.608,3.237,2.335,4.038.442,5.387.073,6.755A.49.49,0,0,0,0,7V25.5a.47.47,0,0,0,.058.226C.649,28.173,5.932,30,12.5,30c5.62,0,10.29-1.34,11.893-3.259,3.18-.773,5.183-2.038,5.545-3.5A.5.5,0,0,0,30,23V4.75C30,2.447,25.619,0,17.5,0Zm6.4,19.674a1.437,1.437,0,0,1-.072.149,1.7,1.7,0,0,1-.115.184c-.033.046-.07.093-.11.139-.056.066-.115.131-.181.2-.041.039-.085.079-.13.118-.082.072-.167.142-.263.213-.041.031-.085.06-.128.09-.113.078-.231.156-.361.232-.034.021-.07.04-.106.06-.149.084-.3.167-.472.249l-.066.031c-.187.088-.383.176-.593.26l-.018.007a19.383,19.383,0,0,1-4.281,1.085l-.025,0q-.494.073-1.013.129l-.173.016c-.3.031-.608.06-.924.083-.144.01-.3.015-.441.024-.237.014-.472.029-.715.038-.4.012-.8.02-1.215.02s-.818-.008-1.216-.022c-.243-.008-.477-.024-.715-.038-.146-.008-.3-.014-.441-.024-.315-.023-.621-.052-.924-.083l-.173-.016q-.52-.057-1.013-.129l-.025,0A19.383,19.383,0,0,1,3.712,21.6l-.018-.007c-.21-.084-.406-.171-.593-.26L3.035,21.3c-.168-.081-.323-.164-.473-.249-.035-.02-.072-.039-.106-.06-.129-.076-.247-.153-.361-.232-.043-.03-.088-.059-.128-.09-.1-.07-.181-.142-.263-.213-.044-.039-.089-.078-.13-.118a2.61,2.61,0,0,1-.181-.2c-.039-.046-.077-.092-.11-.139a1.864,1.864,0,0,1-.115-.184,1.547,1.547,0,0,1-.072-.149,1.212,1.212,0,0,1-.058-.181A1.082,1.082,0,0,1,1,19.25a1.067,1.067,0,0,1,.015-.169A.5.5,0,0,0,1,18.858V15.146c.014.013.031.026.046.038.109.1.22.191.345.283C3.274,16.893,7.041,18,12.5,18c5.436,0,9.193-1.1,11.084-2.514A5.09,5.09,0,0,0,24,15.147h0v3.712a.5.5,0,0,0-.015.222A1.068,1.068,0,0,1,24,19.25a1.081,1.081,0,0,1-.039.243A1.272,1.272,0,0,1,23.9,19.674ZM1.3,9.4c.15.118.312.234.488.348.036.024.077.047.115.07q.221.137.466.269l.184.1q.274.14.576.271c.033.014.063.03.1.043.234.1.484.194.743.286.071.026.147.05.22.075q.309.1.64.2c.08.023.157.047.239.069.293.081.595.158.911.229.043.01.09.018.135.028.28.061.569.118.867.17l.306.052q.425.07.875.128c.077.01.151.021.229.031.372.045.757.083,1.153.116.1.008.2.014.3.021q.475.034.971.057l.363.016c.432.014.871.025,1.326.025s.894-.01,1.325-.025l.363-.016q.5-.023.971-.057c.1-.007.2-.013.3-.021.4-.033.78-.071,1.152-.116.078-.009.152-.021.229-.031q.449-.058.875-.128l.306-.052c.3-.053.588-.109.868-.17l.135-.028c.317-.071.619-.149.911-.229.081-.023.16-.046.239-.069q.331-.1.639-.2c.073-.025.149-.049.22-.075.259-.092.508-.187.743-.286.034-.014.063-.029.1-.043q.3-.132.576-.271l.184-.1q.245-.131.466-.269c.038-.024.079-.047.115-.07.176-.113.337-.229.487-.348.038-.03.071-.06.108-.09.065-.054.133-.108.194-.162v3.712a.5.5,0,0,0-.015.222A1.067,1.067,0,0,1,24,13.25a1.081,1.081,0,0,1-.039.243,1.23,1.23,0,0,1-.058.182,1.437,1.437,0,0,1-.072.149,1.7,1.7,0,0,1-.115.184c-.033.047-.07.092-.11.139-.056.066-.115.131-.181.2-.041.04-.085.078-.13.118-.082.071-.167.142-.263.213-.041.031-.085.06-.128.09-.113.078-.231.156-.361.231-.034.021-.07.04-.106.06-.149.084-.3.167-.472.248l-.066.031c-.187.089-.383.175-.593.259l-.018.007a19.383,19.383,0,0,1-4.281,1.085l-.025,0q-.494.073-1.013.129l-.173.016c-.3.031-.608.06-.924.083-.144.01-.3.015-.441.024-.237.014-.472.029-.715.038-.4.012-.8.02-1.215.02s-.818-.008-1.216-.022c-.243-.008-.477-.024-.715-.038-.146-.008-.3-.014-.441-.024-.315-.023-.621-.052-.924-.083l-.173-.016q-.52-.057-1.013-.129l-.025,0A19.383,19.383,0,0,1,3.712,15.6l-.018-.007c-.21-.084-.406-.171-.593-.259L3.035,15.3c-.168-.081-.323-.164-.473-.248-.035-.02-.072-.04-.106-.06-.129-.076-.247-.153-.361-.231-.043-.03-.088-.059-.128-.09-.1-.071-.181-.141-.263-.213-.044-.039-.089-.078-.13-.118a2.609,2.609,0,0,1-.181-.2c-.039-.046-.077-.092-.11-.139a1.864,1.864,0,0,1-.115-.184,1.547,1.547,0,0,1-.072-.149,1.212,1.212,0,0,1-.058-.182A1.082,1.082,0,0,1,1,13.25a1.067,1.067,0,0,1,.015-.169A.5.5,0,0,0,1,12.858V9.146c.06.054.128.108.194.162C1.23,9.339,1.263,9.368,1.3,9.4ZM25,19.545V14.586l.063-.019q.3-.084.584-.173l.007,0A9.154,9.154,0,0,0,29,12.679V16.75a1.037,1.037,0,0,1-.017.174,1.166,1.166,0,0,1-.036.144c0,.014-.007.028-.013.042a1.323,1.323,0,0,1-.066.157l-.01.02c-.414.808-1.733,1.6-3.635,2.19ZM29,6.674V10.75a1.037,1.037,0,0,1-.017.175,1.166,1.166,0,0,1-.036.144c0,.014-.007.028-.013.042a1.323,1.323,0,0,1-.066.158l-.01.019c-.414.807-1.733,1.6-3.635,2.189L25,13.545V8.586l.122-.036c.115-.033.227-.066.338-.1.094-.028.189-.057.281-.087.114-.037.224-.075.333-.113.083-.029.167-.057.247-.087.115-.042.226-.087.337-.131.069-.028.139-.054.206-.082.128-.054.25-.109.371-.166l.132-.06q.243-.117.465-.24l.044-.026c.131-.073.257-.148.375-.223.042-.027.08-.055.12-.082.088-.058.175-.117.256-.178.045-.033.084-.067.126-.1.07-.056.141-.112.205-.169C28.973,6.694,28.988,6.685,29,6.674ZM17.5,1C24.278,1,29,2.976,29,4.75a1.038,1.038,0,0,1-.02.2c0,.022-.013.043-.018.065a1.242,1.242,0,0,1-.039.135c-.01.026-.024.052-.035.078s-.037.081-.059.122-.034.055-.052.082-.05.078-.079.116-.045.056-.067.083-.063.076-.1.114-.054.056-.082.084-.076.075-.118.111-.063.056-.1.083-.09.073-.138.109-.072.055-.109.082-.1.073-.158.109l-.121.079c-.058.036-.118.073-.18.108-.042.025-.084.05-.129.075-.066.036-.136.073-.206.109-.045.023-.087.047-.133.069-.076.038-.157.075-.238.113l-.131.061c-.107.047-.217.094-.33.139L26.3,7.1c-.137.055-.279.108-.425.161l-.125.043c-.107.037-.214.074-.326.11-.058.019-.119.036-.178.055L25,7.544V7a.46.46,0,0,0-.032-.161.445.445,0,0,0-.023-.057.042.042,0,0,0,0-.007,3.107,3.107,0,0,0-1.2-1.64l-.01-.009c-.091-.071-.192-.14-.292-.209-1.774-1.255-5.038-2.24-9.667-2.393-.42-.016-.844-.025-1.274-.025s-.851.009-1.273.024a31.339,31.339,0,0,0-3.442.3A22.2,22.2,0,0,1,17.5,1ZM6.747,4.03c.126-.025.256-.047.385-.07.166-.03.333-.06.5-.088.149-.024.3-.046.453-.069.168-.024.34-.046.514-.068.147-.019.293-.037.443-.053q.449-.049.917-.085c.118-.01.239-.016.358-.023.242-.016.486-.03.735-.04l.354-.014c.359-.011.721-.02,1.092-.02q.62,0,1.217.022c.24.009.472.024.705.037.15.009.3.014.451.025.311.023.612.052.91.082.061.006.126.01.187.017q.508.055.99.126l.05.007A19.418,19.418,0,0,1,21.274,4.9l.038.015c.2.082.393.166.574.252l.084.039c.163.078.313.159.457.24.04.023.082.045.121.068.125.074.239.148.348.223.048.032.1.065.14.1.092.068.174.136.253.206.048.042.095.083.138.125.065.063.122.126.176.189.041.048.08.1.114.144a1.713,1.713,0,0,1,.112.18,1.449,1.449,0,0,1,.073.152,1.236,1.236,0,0,1,.057.179A1.071,1.071,0,0,1,24,7.25C24,9.024,19.278,11,12.5,11S1,9.024,1,7.25C1,6.04,3.2,4.738,6.747,4.03ZM12.5,29C5.982,29,1.3,27.149,1.016,25.419A.464.464,0,0,0,1,25.354V21.146c.014.013.031.025.046.038.109.1.22.191.345.284C3.274,22.893,7.041,24,12.5,24c5.436,0,9.193-1.1,11.084-2.514A5.09,5.09,0,0,0,24,21.147h0v4.2a.51.51,0,0,0-.016.067,1.213,1.213,0,0,1-.1.306c-.018.039-.046.079-.069.118C22.913,27.438,18.486,29,12.5,29Zm16.484-6.081c-.159.97-1.657,1.945-3.986,2.628,0-.015,0-.031,0-.047V20.586l.063-.018q.3-.084.584-.173l.007,0A9.154,9.154,0,0,0,29,18.679v4.173A.485.485,0,0,0,28.984,22.919Z" transform="translate(764 780)"/>
  </g>
</svg>
