<svg xmlns="http://www.w3.org/2000/svg" viewBox="0 0 88.758 81.682">
  <defs>
    <style>
      .cls-1 {
        fill: #ffefe4;
        fill-rule: evenodd;
      }

      .cls-2 {
        fill: #fd7241;
      }
    </style>
  </defs>
  <g id="Group_44" data-name="Group 44" transform="translate(-543 -753)">
    <g id="blob" transform="translate(543 753)">
      <g id="Landing-Page-v1.0" transform="translate(-878 -1090)">
        <g id="perks" transform="translate(-434 1088)">
          <g id="_1" data-name="1" transform="translate(1312 2)">
            <g id="icon-practicies">
              <path id="Path-4" class="cls-1" d="M16.094,12.042,13.98,14.237A49.933,49.933,0,0,0,.094,51.953h0A29.976,29.976,0,0,0,22.737,79.192l.684.171a77.533,77.533,0,0,0,43.46-1.7l2.387-.8A28.564,28.564,0,0,0,88.2,44.178l-1.785-8.926A44.019,44.019,0,0,0,57.442,2.216L57.106,2.1A39.343,39.343,0,0,0,16.094,12.042Z"/>
            </g>
          </g>
        </g>
      </g>
    </g>
    <g id="website-design-symbol" transform="translate(572 776.364)">
      <path id="Path_42" data-name="Path 42" class="cls-2" d="M43.4,89.634a1.5,1.5,0,0,1-.587-.976l-.2-1.272H36.273l-.2,1.271a1.493,1.493,0,0,1-.586.977c-.53.39-.949.725-.53.782.4.054,4.206,0,4.487,0s4.083.054,4.486,0C44.348,90.359,43.929,90.025,43.4,89.634Z" transform="translate(-24.137 -58.805)"/>
      <g id="Group_28" data-name="Group 28" transform="translate(7.764 2.636)">
        <path id="Path_43" data-name="Path 43" class="cls-2" d="M25.761,54.439c1.694-.013,1.905-.422,2.457-2.122,1.019-2.684,5.605.7,2.763,1.878S24.067,54.453,25.761,54.439Z" transform="translate(-25.362 -36.407)"/>
        <path id="Path_44" data-name="Path 44" class="cls-2" d="M55.351,2.979a2.25,2.25,0,0,0-3.042.729L43.618,16.056c-.858,1.064-.854.861-.032,1.523s.624.71,1.482-.355L55.286,6.106A2.249,2.249,0,0,0,55.351,2.979ZM53.116,4.457a4.724,4.724,0,0,0-.551-.486,1.962,1.962,0,0,1,1.883-.847C53.265,3.822,53.116,4.457,53.116,4.457Z" transform="translate(-37.581 -2.636)"/>
      </g>
      <path id="Path_45" data-name="Path 45" class="cls-2" d="M29.389,17.386H25.567l-1.688,1.837h4.9V33.917H1.837V19.223H17.508L18.8,17.386H1.225A1.225,1.225,0,0,0,0,18.611V36.366a1.225,1.225,0,0,0,1.225,1.225H29.389a1.225,1.225,0,0,0,1.225-1.225V18.611A1.225,1.225,0,0,0,29.389,17.386Z" transform="translate(0 -10.235)"/>
    </g>
  </g>
</svg>
