<?xml version="1.0" encoding="utf-8"?>
<!-- Generator: Adobe Illustrator 22.1.0, SVG Export Plug-In . SVG Version: 6.00 Build 0)  -->
<svg version="1.1" id="Layer_1" xmlns="http://www.w3.org/2000/svg" xmlns:xlink="http://www.w3.org/1999/xlink" x="0px" y="0px"
	 viewBox="0 0 500 500" style="enable-background:new 0 0 500 500;" xml:space="preserve">
<style type="text/css">
	.st0{fill:#377DFF;}
	.st1{fill:#FFFFFF;}
	.st2{enable-background:new    ;}
	.st3{fill:#8A40F8;}
</style>
<g>
	<rect class="st0" width="500" height="500"/>
</g>
<g id="Group_2" transform="translate(-324 -14)">
	<g transform="matrix(1, 0, 0, 1, 324, 14)">
		<g id="Ellipse_1-2">
			<circle class="st1" cx="250" cy="250" r="136"/>
		</g>
	</g>
	<g class="st2">
		<path class="st3" d="M546.9,267.6c0,20.3,13.3,31.8,28.8,31.8s23.3-10.3,25.8-19l26.7,8.9c-5,18.7-22.6,37.9-52.6,37.9
			c-33.1,0-59.2-25.1-59.2-59.6c0-34.7,25.6-59.6,58.3-59.6c30.6,0,48,19,52.8,37.9l-27.2,9.1c-2.7-9.4-9.8-19-24.9-19
			C559.9,236.1,546.9,247.3,546.9,267.6z"/>
	</g>
</g>
</svg>
