<?xml version="1.0" encoding="utf-8"?>
<!-- Generator: Adobe Illustrator 22.1.0, SVG Export Plug-In . SVG Version: 6.00 Build 0)  -->
<svg version="1.1" id="Layer_1" xmlns="http://www.w3.org/2000/svg" xmlns:xlink="http://www.w3.org/1999/xlink" x="0px" y="0px"
	 viewBox="0 0 51 75" style="enable-background:new 0 0 51 75;" xml:space="preserve">
<style type="text/css">
	.st0{enable-background:new    ;}
	.st1{fill:#FFFFFF;}
</style>
<g class="st0">
	<path class="st1" d="M2.1,57.5h6.8V22.3H2.1v-2.5h17.4c11.8,0,14.8,4.6,14.8,9.7c0,3.3-2.1,7.9-9.9,9.3v0.1
		c7.9,0.6,11.8,4.8,11.8,9.7c0,5.7-3.3,11.3-16.6,11.3H2.1V57.5z M20.3,37.7c6.3,0,9.3-3.1,9.3-8.2c0-4.5-2.3-7.1-8.9-7.1h-7.4v15.4
		H20.3z M20.5,57.5c7.7,0,11-2.8,11-9.1c0-5.1-3.8-8.4-11.3-8.4h-6.9v17.4H20.5z"/>
	<path class="st1" d="M41.5,57.8c0-1.7,1.4-3.1,3.1-3.1s3.1,1.4,3.1,3.1c0,1.7-1.4,3.1-3.1,3.1S41.5,59.5,41.5,57.8z"/>
</g>
</svg>
