<?xml version="1.0" encoding="UTF-8" ?>
<!DOCTYPE svg PUBLIC "-//W3C//DTD SVG 1.1//EN" "http://www.w3.org/Graphics/SVG/1.1/DTD/svg11.dtd">
<svg width="102pt" height="114pt" viewBox="0 0 102 114" version="1.1" xmlns="http://www.w3.org/2000/svg">
<path fill="#ff3540" opacity="1.00" d=" M 16.90 8.82 C 19.81 1.70 29.48 -1.27 35.84 3.14 C 41.71 6.69 43.56 15.11 39.93 20.86 C 38.01 23.93 34.81 26.20 31.24 26.85 C 29.45 26.92 27.65 26.89 25.87 26.76 C 18.17 25.22 13.39 15.93 16.90 8.82 Z" />
<path fill="#11d27c" opacity="1.00" d=" M 60.48 10.09 C 62.42 3.54 70.10 -0.58 76.61 1.63 C 83.32 3.49 87.52 11.23 85.34 17.87 C 83.98 22.33 80.07 25.88 75.50 26.83 C 73.72 26.94 71.93 26.92 70.15 26.81 C 62.89 25.47 57.83 17.09 60.48 10.09 Z" />
<path fill="#a34fff" opacity="1.00" d=" M 25.87 26.76 C 27.65 26.89 29.45 26.92 31.24 26.85 C 31.27 31.00 31.26 35.15 31.27 39.29 C 44.20 38.28 57.22 38.25 70.16 39.27 C 70.16 35.12 70.16 30.97 70.15 26.81 C 71.93 26.92 73.72 26.94 75.50 26.83 C 75.51 31.12 75.47 35.40 75.54 39.69 C 80.04 40.26 84.58 40.56 89.04 41.36 C 94.20 42.26 98.28 46.81 98.93 51.96 C 101.71 67.52 101.40 83.52 99.01 99.10 C 98.49 104.88 93.65 109.83 87.86 110.36 C 63.46 113.84 38.54 113.80 14.14 110.38 C 8.36 109.90 3.49 105.00 2.87 99.26 C 0.55 84.04 0.53 68.48 2.71 53.24 C 3.14 48.81 5.51 44.45 9.61 42.46 C 14.69 40.24 20.45 40.69 25.82 39.67 C 25.86 35.37 25.82 31.07 25.87 26.76 M 21.35 55.32 C 21.42 57.00 21.47 58.68 21.51 60.36 C 22.97 60.45 24.86 59.67 25.83 61.20 C 26.26 62.46 26.43 63.76 26.34 65.10 C 24.70 65.10 23.06 65.09 21.42 65.08 C 21.41 66.73 21.40 68.39 21.39 70.04 C 23.01 70.05 24.63 70.05 26.24 70.06 C 26.24 68.41 26.24 66.76 26.24 65.11 C 27.89 65.12 29.53 65.13 31.18 65.14 C 31.18 66.78 31.18 68.41 31.19 70.05 C 32.77 70.05 34.35 70.05 35.93 70.05 C 35.95 68.42 35.97 66.79 35.98 65.15 C 34.35 65.13 32.72 65.11 31.08 65.10 C 31.25 63.62 30.54 61.86 31.63 60.62 C 32.97 59.79 34.62 60.33 36.09 60.19 C 36.03 58.58 35.97 56.97 35.92 55.36 C 34.37 55.35 32.83 55.34 31.28 55.33 C 31.19 56.81 31.36 58.36 30.78 59.77 C 29.39 60.49 27.65 60.67 26.31 59.75 C 25.88 58.31 26.22 56.80 26.27 55.34 C 24.63 55.34 22.99 55.33 21.35 55.32 M 65.51 55.32 C 65.51 56.99 65.52 58.65 65.53 60.31 C 67.13 60.28 68.73 60.26 70.33 60.23 C 70.30 61.86 70.27 63.49 70.25 65.11 C 68.68 65.09 67.11 65.07 65.55 65.05 C 65.53 66.72 65.52 68.39 65.50 70.06 C 67.09 70.06 68.67 70.05 70.25 70.05 C 70.24 68.41 70.24 66.77 70.23 65.14 C 71.93 65.12 73.63 65.11 75.32 65.09 C 75.30 66.74 75.29 68.39 75.27 70.05 C 76.90 70.05 78.52 70.05 80.15 70.05 C 80.15 68.43 80.15 66.81 80.16 65.18 C 78.52 65.13 76.88 65.07 75.24 65.01 C 75.23 63.42 75.22 61.83 75.21 60.24 C 76.86 60.25 78.51 60.25 80.16 60.26 C 80.15 58.63 80.15 57.00 80.15 55.38 C 78.53 55.35 76.92 55.33 75.30 55.31 C 75.28 56.95 75.27 58.58 75.25 60.22 C 73.58 60.22 71.90 60.21 70.22 60.20 C 70.22 58.57 70.22 56.95 70.22 55.32 C 68.64 55.32 67.08 55.32 65.51 55.32 M 41.08 84.60 C 41.07 86.23 41.05 87.85 41.04 89.48 C 39.39 89.48 37.74 89.48 36.08 89.48 C 36.07 91.16 36.05 92.83 36.04 94.51 C 37.67 94.51 39.30 94.51 40.94 94.51 C 40.94 92.85 40.95 91.18 40.95 89.52 C 49.15 89.49 57.35 89.48 65.54 89.52 C 65.53 91.21 65.52 92.89 65.51 94.58 C 67.11 94.54 68.70 94.50 70.30 94.47 C 70.27 92.79 70.25 91.12 70.22 89.45 C 68.63 89.47 67.04 89.48 65.45 89.49 C 65.46 87.85 65.48 86.21 65.49 84.57 C 57.35 84.66 49.22 84.62 41.08 84.60 M 31.16 94.49 C 31.16 96.08 31.16 97.67 31.16 99.27 C 32.80 99.27 34.44 99.26 36.08 99.26 C 36.03 97.67 35.99 96.08 35.94 94.49 C 34.35 94.49 32.75 94.49 31.16 94.49 Z" />
<path fill="#ffffff" opacity="1.00" d=" M 21.35 55.32 C 22.99 55.33 24.63 55.34 26.27 55.34 C 26.22 56.80 25.88 58.31 26.31 59.75 C 27.65 60.67 29.39 60.49 30.78 59.77 C 31.36 58.36 31.19 56.81 31.28 55.33 C 32.83 55.34 34.37 55.35 35.92 55.36 C 35.97 56.97 36.03 58.58 36.09 60.19 C 34.62 60.33 32.97 59.79 31.63 60.62 C 30.54 61.86 31.25 63.62 31.08 65.10 C 32.72 65.11 34.35 65.13 35.98 65.15 C 35.97 66.79 35.95 68.42 35.93 70.05 C 34.35 70.05 32.77 70.05 31.19 70.05 C 31.18 68.41 31.18 66.78 31.18 65.14 C 29.53 65.13 27.89 65.12 26.24 65.11 C 26.24 66.76 26.24 68.41 26.24 70.06 C 24.63 70.05 23.01 70.05 21.39 70.04 C 21.40 68.39 21.41 66.73 21.42 65.08 C 23.06 65.09 24.70 65.10 26.34 65.10 C 26.43 63.76 26.26 62.46 25.83 61.20 C 24.86 59.67 22.97 60.45 21.51 60.36 C 21.47 58.68 21.42 57.00 21.35 55.32 Z" />
<path fill="#ffffff" opacity="1.00" d=" M 65.51 55.32 C 67.08 55.32 68.64 55.32 70.22 55.32 C 70.22 56.95 70.22 58.57 70.22 60.20 C 71.90 60.21 73.58 60.22 75.25 60.22 C 75.27 58.58 75.28 56.95 75.30 55.31 C 76.92 55.33 78.53 55.35 80.15 55.38 C 80.15 57.00 80.15 58.63 80.16 60.26 C 78.51 60.25 76.86 60.25 75.21 60.24 C 75.22 61.83 75.23 63.42 75.24 65.01 C 76.88 65.07 78.52 65.13 80.16 65.18 C 80.15 66.81 80.15 68.43 80.15 70.05 C 78.52 70.05 76.90 70.05 75.27 70.05 C 75.29 68.39 75.30 66.74 75.32 65.09 C 73.63 65.11 71.93 65.12 70.23 65.14 C 70.24 66.77 70.24 68.41 70.25 70.05 C 68.67 70.05 67.09 70.06 65.50 70.06 C 65.52 68.39 65.53 66.72 65.55 65.05 C 67.11 65.07 68.68 65.09 70.25 65.11 C 70.27 63.49 70.30 61.86 70.33 60.23 C 68.73 60.26 67.13 60.28 65.53 60.31 C 65.52 58.65 65.51 56.99 65.51 55.32 Z" />
<path fill="#ffffff" opacity="1.00" d=" M 41.08 84.60 C 49.22 84.62 57.35 84.66 65.49 84.57 C 65.48 86.21 65.46 87.85 65.45 89.49 C 67.04 89.48 68.63 89.47 70.22 89.45 C 70.25 91.12 70.27 92.79 70.30 94.47 C 68.70 94.50 67.11 94.54 65.51 94.58 C 65.52 92.89 65.53 91.21 65.54 89.52 C 57.35 89.48 49.15 89.49 40.95 89.52 C 40.95 91.18 40.94 92.85 40.94 94.51 C 39.30 94.51 37.67 94.51 36.04 94.51 C 36.05 92.83 36.07 91.16 36.08 89.48 C 37.74 89.48 39.39 89.48 41.04 89.48 C 41.05 87.85 41.07 86.23 41.08 84.60 Z" />
<path fill="#ffffff" opacity="1.00" d=" M 31.16 94.49 C 32.75 94.49 34.35 94.49 35.94 94.49 C 35.99 96.08 36.03 97.67 36.08 99.26 C 34.44 99.26 32.80 99.27 31.16 99.27 C 31.16 97.67 31.16 96.08 31.16 94.49 Z" />
</svg>
