<?xml version="1.0" encoding="iso-8859-1"?>
<!-- Generator: Adobe Illustrator 18.0.0, SVG Export Plug-In . SVG Version: 6.00 Build 0)  -->
<!DOCTYPE svg PUBLIC "-//W3C//DTD SVG 1.1//EN" "http://www.w3.org/Graphics/SVG/1.1/DTD/svg11.dtd">
<svg version="1.1" id="Capa_1" xmlns="http://www.w3.org/2000/svg" xmlns:xlink="http://www.w3.org/1999/xlink" x="0px" y="0px" fill="#377dff"
	 viewBox="0 0 53.339 53.339" style="enable-background:new 0 0 53.339 53.339;" xml:space="preserve">
<path id="XMLID_139_" d="M26.669,0C14.208,0,4.105,9.333,4.105,20.845c0,11.512,12.379,32.494,22.564,32.494
	c10.186,0,22.564-20.982,22.564-32.494C49.234,9.333,39.131,0,26.669,0z M42.801,24.006c-0.829,0-1.5-0.671-1.5-1.5
	c0-7.39-6.563-13.402-14.631-13.402s-14.631,6.012-14.631,13.402c0,0.829-0.671,1.5-1.5,1.5s-1.5-0.671-1.5-1.5
	c0-9.044,7.909-16.402,17.631-16.402s17.631,7.358,17.631,16.402C44.301,23.334,43.629,24.006,42.801,24.006z"/>
<g>
</g>
<g>
</g>
<g>
</g>
<g>
</g>
<g>
</g>
<g>
</g>
<g>
</g>
<g>
</g>
<g>
</g>
<g>
</g>
<g>
</g>
<g>
</g>
<g>
</g>
<g>
</g>
<g>
</g>
</svg>
