<svg xmlns="http://www.w3.org/2000/svg" viewBox="0 0 399.71 430"><defs><style>.cls-1{fill:#4c3515;}.cls-2{fill:#301f0b;}.cls-3{fill:#aa8548;}.cls-4{fill:#725422;}.cls-5,.cls-7{fill:#fff;}.cls-6{fill:#ff92c4;}.cls-7{stroke:#000;stroke-linecap:round;stroke-linejoin:round;stroke-width:20px;opacity:0.3;}</style></defs><title>DOGGO 2</title><g id="Layer_2" data-name="Layer 2"><g id="Layer_1-2" data-name="Layer 1"><path class="cls-1" d="M175,80C78.39,80,.92,90,0,250c-.33,60-.33,140,80,180,0,0,50-10,50-170L179.71,80"/><path class="cls-2" d="M19.73,372c11.77,22.81,30.52,43.17,60.33,58h0a11.89,11.89,0,0,0,1.45-.45l0,0c7.92-3.06,44.35-23.84,48.16-147.91l0-.22c0-.57,0-1.14,0-1.71l0-.06c.17-6.28.27-12.8.27-19.62L99.56,237.33,80,210C19.23,210,18.79,338.28,19.73,372Z"/><path class="cls-1" d="M318.19,429.52c-7.86-3-44.43-23.68-48.2-148.13l0,.22C273.84,405.68,310.27,426.46,318.19,429.52Z"/><path class="cls-1" d="M380,372c.94-33.69.5-162-60.31-162l-19.52,27.33L269.71,260c0,6.82.1,13.34.27,19.62l0,.06q-.27-9.43-.27-19.68L220,80h4.67c96.65,0,174.12,10,175,170C399.88,287.72,399.95,333.35,380,372Z"/><path class="cls-2" d="M380,372c-11.77,22.81-30.52,43.17-60.33,58h0a11.89,11.89,0,0,1-1.45-.45l0,0c-7.92-3.06-44.35-23.84-48.16-147.91l0-.22c0-.57,0-1.14,0-1.71l0-.06c-.17-6.28-.27-12.8-.27-19.62l30.48-22.67L319.71,210C380.52,210,381,338.28,380,372Z"/><path class="cls-2" d="M269.94,279.68c0,.57,0,1.14,0,1.71l-.28-1.39Z"/><path class="cls-1" d="M240,80s-30-20-60-30c-28.46-9.49-50-30-50-30S120,100,240,80Z"/><path class="cls-3" d="M280.2,100s-30.2-30-60-50c-24.91-16.72-50-50-50-50S160.2,120,280.2,100Z"/><path class="cls-4" d="M240,330s80-10,80-110S300,70,200,70,80,120,80,220s80,110,80,110"/><circle cx="130" cy="180" r="30"/><circle class="cls-5" cx="140" cy="170" r="10"/><circle cx="270" cy="180" r="30"/><circle class="cls-5" cx="280" cy="170" r="10"/><path class="cls-4" d="M150,320c-10,40,10,80,50,80s60-40,50-80l-50-50Z"/><path class="cls-6" d="M160,280v60s0,40,40,40,40-40,40-40V280l-40-30Z"/><line class="cls-7" x1="200" y1="340" x2="200" y2="260"/><path class="cls-3" d="M200,300s20,30,50,30,40-20,40-40c0-60-20-80-40-90s-50-10-50-10-30,0-50,10-40,30-40,90c0,20,10,40,40,40s50-30,50-30"/><path d="M240,220c0,22.09-10,40-40,40s-40-17.91-40-40c0-10,10-20,40-20S240,210,240,220Z"/><circle cx="220" cy="240" r="10"/><circle cx="180" cy="240" r="10"/></g></g></svg>