<svg xmlns="http://www.w3.org/2000/svg" viewBox="-12708 -17073 133.432 47.051"><defs><style>.a{fill:#2685c7;}.b{fill:#bccf1b;}.c{fill:#fff;}.d{fill:#1856a4;}.d,.e,.f,.g{fill-rule:evenodd;}.f{fill:#cb2327;}.g{fill:#589141;}.h{fill:#efc61b;}</style></defs><g transform="translate(-12708 -17073)"><path class="a" d="M18.314,809.021a6.206,6.206,0,0,1-1.9,2.335,8.5,8.5,0,0,1-2.859,1.374,12.986,12.986,0,0,1-3.515.459A16.429,16.429,0,0,1,0,809.655l2.838-4.367a15.756,15.756,0,0,0,3.821,2.095,10.315,10.315,0,0,0,3.559.7,3.7,3.7,0,0,0,2.117-.481,1.486,1.486,0,0,0,.677-1.267v-.087a1.258,1.258,0,0,0-.393-.918,3.342,3.342,0,0,0-1.071-.677A15.685,15.685,0,0,0,10,804.105q-.873-.262-1.833-.568a24.472,24.472,0,0,1-2.466-.852,8.713,8.713,0,0,1-2.248-1.311,6.4,6.4,0,0,1-1.636-1.985,6.038,6.038,0,0,1-.634-2.881v-.087a6.884,6.884,0,0,1,2.51-5.5A7.8,7.8,0,0,1,6.4,789.481,11.246,11.246,0,0,1,9.736,789a15.025,15.025,0,0,1,4.52.721,16.775,16.775,0,0,1,4.214,1.985l-2.532,4.585a20.927,20.927,0,0,0-3.406-1.595,8.893,8.893,0,0,0-2.925-.59,3.03,3.03,0,0,0-1.833.459,1.4,1.4,0,0,0-.612,1.158v.087a1.145,1.145,0,0,0,.393.852,4.34,4.34,0,0,0,1.049.7,14.033,14.033,0,0,0,1.508.634c.568.2,1.172.407,1.811.612q1.221.393,2.488.939a10.288,10.288,0,0,1,2.269,1.33,6.571,6.571,0,0,1,1.658,1.92,5.416,5.416,0,0,1,.655,2.75v.087A7.841,7.841,0,0,1,18.314,809.021Z" transform="translate(0 -767.452)"/><path class="a" d="M786.5,539.671V507.8h6.636v31.871Z" transform="translate(-765.021 -493.932)"/><path class="a" d="M1113.93,614a10.485,10.485,0,0,1-2.925.371,10.883,10.883,0,0,1-2.772-.328,4.916,4.916,0,0,1-2.138-1.158,5.549,5.549,0,0,1-1.4-2.16,9.674,9.674,0,0,1-.5-3.384V596.256H1101.4v-5.675h2.794V584.6h6.636v5.981h5.5v5.675h-5.5v10q0,2.27,2.138,2.27a6.746,6.746,0,0,0,3.274-.83v5.325A10.131,10.131,0,0,1,1113.93,614Z" transform="translate(-1071.321 -568.635)"/><path class="b" d="M1755.584,0C1746.5,0,1739.1,5.828,1739.1,12.989c0,3.774,2.065,7.338,5.678,9.81-.538,2.349-1.207,4-1.846,4.536a.364.364,0,0,0,.235.642.112.112,0,0,0,.03,0,15,15,0,0,0,6.975-2.712,20.51,20.51,0,0,0,5.41.716c9.089,0,16.484-5.828,16.484-12.989S1764.673,0,1755.584,0Z" transform="translate(-1691.605)"/><path class="c" d="M1864.286,365.558c-4.345,0-7.726-1.218-10.047-3.619a11.531,11.531,0,0,1-3.083-7.745,1.658,1.658,0,1,1,3.315.09,8.248,8.248,0,0,0,2.177,5.364c1.674,1.712,4.244,2.581,7.641,2.581,10.02,0,10.3-7.969,10.31-8.308a1.658,1.658,0,1,1,3.315.068C1877.909,354.106,1877.515,365.558,1864.286,365.558Z" transform="translate(-1800.599 -342.669)"/><g transform="translate(58.87 18.317)"><path class="d" d="M3545.88,678.29a2.237,2.237,0,0,1-.625-.107q-1.024-.582-2.021-1.21a.462.462,0,0,0-.612.025c-.735.538-1.489,1.054-2.239,1.584-.257-.153-.213-.325-.112-.549.295-.666.56-1.344.852-2.01.109-.246.025-.336-.2-.451-.606-.32-1.2-.658-1.775-1.027-.169-.109-.26-.347-.451-.62.342-.052.574-.093.8-.123.65-.085,1.3-.169,1.953-.249a.406.406,0,0,0,.4-.407c.109-.718.249-1.431.388-2.144.022-.109.125-.2.191-.3.079.087.194.164.232.265.2.549.374,1.109.563,1.66.18.524.246.541.779.451.746-.126,1.5-.229,2.248-.309.15-.016.314.12.472.186a1.537,1.537,0,0,1-.232.4c-.543.494-1.1.98-1.663,1.453a.538.538,0,0,0-.153.767c.407.847.762,1.715,1.2,2.72" transform="translate(-3500.928 -670.7)"/><g transform="translate(0 3.335)"><path class="e" d="M2361.443,1217.836a4.177,4.177,0,0,1-4.343-4.192,4.351,4.351,0,1,1,4.343,4.192m3.059-4.228a3.034,3.034,0,0,0-3.078-3.116,2.978,2.978,0,0,0-3.037,3.094,3.041,3.041,0,0,0,3.111,3.133,2.947,2.947,0,0,0,3-3.111" transform="translate(-2351.597 -1198.023)"/><path class="e" d="M2158,1095.8v6.989h-1.254v-6.964h-1.15v-1.071h1.139v-.792c.014-2.581,1.972-2.857,3.69-2.477a.367.367,0,0,1,.2.265c.027.268.011.538.011.83-.811-.106-1.625-.437-2.272.251-.5.53-.377,1.224-.4,1.936h2.646v1.032Z" transform="translate(-2155.6 -1083.197)"/><path class="e" d="M2745.3,1210.179h1.207v1.778a19.638,19.638,0,0,1,1.458-1.412,3,3,0,0,1,1.969-.546c0,.374.016.74-.014,1.1-.005.082-.169.21-.273.221a3.215,3.215,0,0,0-3.094,3.356c-.027,1.016-.022,2.032-.033,3.051,0,.156,0,.309,0,.483H2745.3Z" transform="translate(-2729.195 -1198.605)"/><path class="f" d="M3023.741,850.028c-.562.628-1.081,1.193-1.578,1.783a.766.766,0,0,0-.074.448q0,4.518,0,9.034c0,.836-.366,1.215-1.2,1.2a12.111,12.111,0,0,1-1.409-.085,1.087,1.087,0,0,1-.989-.942,19.1,19.1,0,0,1-.344-2.72q-.189-7.976-.3-15.949a24.281,24.281,0,0,1,.2-3.212,1.552,1.552,0,0,1,1.827-1.224,2.564,2.564,0,0,1,2.105,2.663c.022,1.677-.025,3.354-.041,5.028,0,.066.014.131.03.276.863-.767,1.682-1.475,2.483-2.207,1.5-1.374,2.979-2.772,4.49-4.138a2.374,2.374,0,0,1,2.234-.718,1.7,1.7,0,0,1,1.155,2.4,4.547,4.547,0,0,1-.893,1.2c-1.182,1.147-2.406,2.253-3.607,3.381-.273.254-.527.527-.8.784a.609.609,0,0,0-.109.893c.9,1.415,1.8,2.829,2.627,4.285.784,1.382,1.456,2.827,2.22,4.219.448.814.991,1.576,1.466,2.376a2.07,2.07,0,0,1,.407,1.5,2.005,2.005,0,0,1-3.2,1.133,4.9,4.9,0,0,1-1.745-2.592,1.594,1.594,0,0,0-.106-.325q-2.011-3.625-4.033-7.243c-.232-.407-.519-.781-.828-1.243" transform="translate(-2994.301 -837.097)"/><path class="g" d="M4494.753,989.1a13.962,13.962,0,0,0,2.133,2.622c.737.8,1.437,1.636,2.141,2.463a5.592,5.592,0,0,1-3.22,8.663,6.407,6.407,0,0,1-6.194-2.01,1.151,1.151,0,0,1-.033-1.671,9.23,9.23,0,0,1,1.068-1.054c.246-.216.521-.126.8.008a14.784,14.784,0,0,0,2.07.909,5.212,5.212,0,0,0,1.576.079c.369-.008.841-.639.915-1.136a2.473,2.473,0,0,0-.388-1.639,13.417,13.417,0,0,0-2.4-2.849,6.437,6.437,0,0,1-2.231-3.766,3.6,3.6,0,0,1,1.586-3.766,7.579,7.579,0,0,1,5.2-1.376,1.411,1.411,0,0,1,1.458,1.644,1.649,1.649,0,0,1-1.284,1.756c-.762.249-1.535.456-2.294.707a8.794,8.794,0,0,0-.9.415" transform="translate(-4425.505 -979.295)"/><path class="d" d="M3654.839,1024.186c0,.445.011.888,0,1.333a1.579,1.579,0,0,1-2.07,1.622,1.524,1.524,0,0,1-1.36-1.3c-.208-1.284-.412-2.567-.571-3.859-.238-1.917-.461-3.834-.644-5.757-.139-1.467-.229-2.939-.295-4.411a1.9,1.9,0,0,1,.849-1.778,1.535,1.535,0,0,1,2.349.855c.271,1.182.429,2.39.615,3.591.281,1.808.573,3.616.806,5.429.183,1.417.284,2.846.423,4.268a.59.59,0,0,0-.1,0" transform="translate(-3609.084 -1003.851)"/><path class="h" d="M3901.4,812.611c-1.163-1.808-1.764-4.736-1.852-11.061s.128-8.909-1.636-8.737-1.893.9-2.108,3.012-.26,5.724-.26,5.724c-4.692-2.54-9,2.411-9.168,6.5s.688,6.456,5.12,8.349a4.46,4.46,0,0,0,6.156-2.28c1.248,2.884,3.616,4.088,4.6,2.668s.3-2.368-.858-4.176m-7.619-.085c-1.636.948-5.208-1.936-3.228-5.9,0,0,1.292-2.28,2.54-2.065a14.3,14.3,0,0,0,2.5,1.592s-.172,5.421-1.808,6.369" transform="translate(-3839.093 -792.806)"/></g></g></g></svg>