<svg xmlns="http://www.w3.org/2000/svg" viewBox="0 0 195.204 136.49">
  <defs>
    <style>
      .cls-1 {
        opacity: 0.05;
      }
    </style>
  </defs>
  <g id="left-quote" class="cls-1" transform="translate(0 -77)">
    <g id="Group_87" data-name="Group 87" transform="translate(103.702 77)">
      <g id="Group_86" data-name="Group 86">
        <path id="Path_118" data-name="Path 118" d="M350.4,135.687a45.472,45.472,0,0,0-30.644-13.654c-.055-.726-.1-1.726-.1-3.1,0-5.609,4.266-22.748,6.955-32.233L329.363,77H295.971l-2.237,3.6C292.847,82.034,272,116.213,272,167.739a45.751,45.751,0,1,0,78.4-32.052ZM317.751,198.24a30.535,30.535,0,0,1-30.5-30.5c0-37.866,12.519-65.894,17.466-75.489h4.624c-2.191,8.61-4.934,20.6-4.934,26.688,0,4.828.358,8.707,2.109,11.945,1.559,2.884,4.819,6.319,11.507,6.355l.333.008a30.5,30.5,0,0,1-.605,60.993Z" transform="translate(-272 -77)"/>
      </g>
    </g>
    <g id="Group_89" data-name="Group 89" transform="translate(0 77)">
      <g id="Group_88" data-name="Group 88">
        <path id="Path_119" data-name="Path 119" d="M78.4,135.687a45.472,45.472,0,0,0-30.644-13.654c-.055-.726-.1-1.726-.1-3.1,0-5.609,4.266-22.748,6.955-32.233L57.363,77H23.971l-2.237,3.6C20.847,82.034,0,116.213,0,167.739a45.751,45.751,0,1,0,78.4-32.052ZM45.751,198.24a30.535,30.535,0,0,1-30.5-30.5c0-37.866,12.519-65.894,17.466-75.489h4.624c-2.191,8.61-4.934,20.6-4.934,26.688,0,4.828.358,8.707,2.109,11.945,1.559,2.884,4.819,6.319,11.507,6.355l.333.008a30.5,30.5,0,0,1-.605,60.993Z" transform="translate(0 -77)"/>
      </g>
    </g>
  </g>
</svg>
